<svg xmlns="http://www.w3.org/2000/svg" width="228" height="151" viewBox="0 0 228 151">
  <defs>
    <style>
      .cls-1 {
        fill: #fff;
        fill-rule: evenodd;
      }
    </style>
  </defs>
  <path id="cloud" class="cls-1" d="M1200.29,387.133c2.01-33.977,30.2-61.132,64.19-61.132a67.127,67.127,0,0,1,52.99,26.456c0.29-.149.59-0.25,0.88-0.387,0.75-.36,1.51-0.706,2.29-1.015,0.43-.169.87-0.325,1.3-0.476,0.78-.268,1.56-0.5,2.36-0.72,0.43-.118.87-0.241,1.31-0.337,0.85-.194,1.73-0.339,2.61-0.471,0.38-.057.76-0.132,1.15-0.177a34.8,34.8,0,0,1,3.83-.221,34.122,34.122,0,0,1,34.2,33.971c0,0.478-.03.954-0.06,1.423v0.014c15.8,8.565,26.66,26.5,26.66,44.444a48.71,48.71,0,0,1-48.81,48.5h-93.13c-0.4,0-.79-0.021-1.18-0.051l-0.24-.031-0.51.031c-0.39.03-.77,0.051-1.17,0.051h-37.25A45.607,45.607,0,0,1,1166,431.593,46.508,46.508,0,0,1,1200.29,387.133Zm11.42,82.316h37.25c0.22,0,.44-0.021.66-0.035l1.03-.038,0.75,0.038c0.22,0.014.44,0.035,0.66,0.035h93.13a41.125,41.125,0,0,0,41.21-40.944c0-15.682-10.28-31.958-24.45-38.7l-2.15-1.024V386.4c0-.478-0.03-0.968-0.06-1.456l-0.03-.605,0.04-.791c0.03-.309.05-0.613,0.05-0.924a26.414,26.414,0,0,0-30.08-26.17c-0.3.037-.6,0.084-0.89,0.134a25.955,25.955,0,0,0-3,.671c-0.13.035-.27,0.061-0.4,0.1a25.545,25.545,0,0,0-3.17,1.213c-0.27.12-.54,0.254-0.8,0.379a27.339,27.339,0,0,0-2.67,1.5,26.377,26.377,0,0,0-12.19,22.178,3.8,3.8,0,0,1-7.6,0,33.789,33.789,0,0,1,12.16-25.937,60.309,60.309,0,0,0-46.68-23.137c-29.43,0-53.88,23.16-56.43,52.428a72.911,72.911,0,0,1,15.52.467,3.774,3.774,0,0,1-.57,7.507,3.532,3.532,0,0,1-.57-0.045,70.418,70.418,0,0,0-17.8-.007c-17.69,3.342-31.03,19.533-31.03,37.693A38.031,38.031,0,0,0,1211.71,469.449Z" transform="translate(-1166 -326)"/>
</svg>
